 <svg  version="1.0" xmlns="http://www.w3.org/2000/svg"  width="900.000000pt" height="546.000000pt" viewBox="0 0 900.000000 546.000000"  preserveAspectRatio="xMidYMid meet">  <g transform="translate(0.000000,546.000000) scale(0.100000,-0.100000)" fill="#092652" stroke="none"> <path d="M0 2730 l0 -2730 4500 0 4500 0 0 2730 0 2730 -4500 0 -4500 0 0 -2730z m2070 1334 c42 -34 75 -61 175 -144 23 -19 63 -53 90 -75 51 -43 103 -86 179 -150 54 -46 86 -92 86 -125 0 -29 -30 -77 -105 -169 -33 -41 -100 -124 -150 -186 -152 -188 -318 -394 -416 -515 -52 -64 -139 -172 -194 -240 -144 -180 -164 -201 -184 -191 -9 5 -70 56 -137 113 -66 56 -142 121 -169 143 -73 61 -266 224 -303 255 -40 35 -40 51 1 97 18 21 56 66 83 101 27 35 65 83 84 106 19 24 80 99 135 167 55 68 102 126 105 129 4 3 33 38 66 79 56 71 114 142 339 422 177 220 177 219 229 219 32 0 51 -8 86 -36z m6048 -1188 c1 -604 -1 -832 -9 -842 -9 -11 -48 -14 -164 -14 -85 0 -160 3 -169 6 -11 4 -16 19 -16 43 0 51 -8 55 -41 23 -27 -27 -56 -43 -133 -78 -55 -25 -258 -25 -318 1 -88 36 -112 51 -162 100 -71 69 -89 93 -121 161 -66 138 -72 340 -16 469 37 84 51 104 116 170 50 51 90 82 140 106 69 33 72 33 210 34 139 0 141 0 205 -33 36 -19 72 -40 81 -48 38 -34 39 -26 39 361 l0 375 178 -2 177 -3 3 -829z m-1323 609 l0 -160 -275 -5 -275 -5 -3 -157 -3 -158 263 -2 263 -3 3 -154 c2 -104 -1 -158 -9 -167 -9 -11 -61 -14 -265 -14 -196 0 -254 -3 -254 -12 -3 -101 0 -282 5 -286 3 -4 125 -7 271 -7 224 0 266 -2 274 -15 15 -23 13 -293 -2 -308 -9 -9 -125 -12 -460 -12 -377 0 -448 2 -455 14 -4 8 -7 375 -5 815 l2 801 463 -2 462 -3 0 -160z m-1311 -81 c14 -5 16 -31 16 -178 0 -120 4 -176 12 -184 7 -7 44 -12 98 -12 54 0 91 -5 98 -12 8 -8 12 -49 12 -118 0 -136 -2 -138 -125 -142 l-90 -3 -3 -150 c-4 -189 3 -249 31 -275 22 -21 72 -27 82 -10 11 17 44 11 55 -11 11 -20 29 -79 51 -164 5 -21 15 -45 21 -52 7 -9 7 -19 -4 -34 -42 -64 -292 -87 -405 -37 -54 24 -109 71 -131 112 -47 89 -51 120 -52 366 0 129 -4 240 -8 247 -4 7 -36 13 -72 15 l-65 3 0 130 0 130 60 3 c42 2 64 8 73 19 8 12 12 67 12 190 l0 173 159 0 c88 0 166 -3 175 -6z m-2159 -370 c85 -37 109 -50 151 -88 50 -43 70 -76 96 -156 16 -48 18 -98 18 -400 0 -256 -3 -349 -12 -358 -13 -13 -301 -18 -332 -6 -14 5 -16 43 -16 318 l0 311 -29 44 c-42 63 -74 81 -148 81 -71 0 -117 -21 -156 -73 -44 -59 -47 -84 -47 -387 0 -253 -2 -289 -16 -294 -9 -3 -82 -6 -164 -6 -112 0 -150 3 -159 14 -8 9 -10 149 -9 502 l3 489 170 0 170 0 5 -35 c6 -37 20 -41 50 -16 25 22 113 68 145 77 50 14 236 3 280 -17z m1230 -1 c125 -46 260 -151 314 -247 172 -300 20 -660 -325 -767 -98 -31 -328 -32 -424 -2 -279 88 -429 316 -388 591 28 194 173 353 388 426 66 23 91 25 245 21 103 -3 153 -9 190 -22z m-3693 -448 c20 -19 80 -71 133 -115 53 -45 109 -92 123 -105 15 -13 79 -67 142 -121 63 -53 116 -103 118 -109 2 -7 -3 -17 -10 -22 -7 -6 -132 -61 -277 -123 -296 -127 -339 -138 -387 -97 -28 24 -29 29 -28 105 1 44 8 108 17 143 8 35 23 100 32 144 9 44 23 105 31 136 8 30 14 67 14 80 0 37 30 119 43 119 7 0 29 -16 49 -35z m-392 -640 c40 -21 60 -53 60 -98 0 -64 -52 -117 -114 -117 -29 0 -66 -42 -66 -76 0 -13 11 -35 25 -49 l26 -25 3993 0 3994 0 4 -28 c2 -16 3 -68 3 -118 l-1 -89 -3755 -8 c-2065 -4 -3872 -5 -4017 -2 -247 5 -265 7 -315 29 -112 49 -197 172 -197 284 0 96 74 226 154 270 77 42 157 52 206 27z"/> <path d="M7476 2753 c-47 -8 -104 -50 -136 -101 -26 -42 -30 -56 -30 -125 0 -67 4 -85 26 -124 16 -26 46 -57 73 -74 40 -25 55 -29 124 -29 104 0 155 26 205 105 22 34 25 51 25 123 0 76 -3 87 -29 125 -45 64 -98 95 -169 101 -33 2 -73 2 -89 -1z"/> <path d="M4263 2751 c-34 -9 -50 -18 -96 -60 -93 -84 -88 -255 9 -340 49 -44 73 -51 162 -51 67 1 82 4 117 28 22 15 53 47 70 71 28 40 30 49 30 129 0 91 -10 119 -59 167 -51 50 -157 75 -233 56z"/> </g> </svg> 