<?xml version="1.0" standalone="no"?>
<!DOCTYPE svg PUBLIC "-//W3C//DTD SVG 20010904//EN"
 "http://www.w3.org/TR/2001/REC-SVG-20010904/DTD/svg10.dtd">
<svg version="1.0" xmlns="http://www.w3.org/2000/svg"
 width="300.000000pt" height="182.000000pt" viewBox="0 0 300.000000 182.000000"
 preserveAspectRatio="xMidYMid meet">
<metadata>
Created by potrace 1.10, written by Peter Selinger 2001-2011
</metadata>
<g transform="translate(0.000000,182.000000) scale(0.100000,-0.100000)"
fill="#000000" stroke="none">
<path d="M655 1402 c-28 -6 -67 -44 -143 -142 -37 -47 -69 -87 -73 -90 -3 -3
-40 -49 -82 -103 -50 -64 -77 -108 -77 -124 0 -14 -13 -40 -29 -58 -21 -24
-32 -51 -40 -101 -18 -105 -17 -103 -56 -97 -19 3 -48 0 -65 -7 -37 -15 -90
-89 -90 -124 0 -50 57 -121 109 -136 22 -6 518 -10 1358 -10 l1324 0 24 24
c14 14 25 34 25 45 0 29 -20 69 -39 77 -9 3 -596 7 -1304 9 -709 2 -1291 6
-1295 9 -11 11 21 26 42 20 28 -9 195 56 228 89 15 16 26 33 22 38 -3 5 7 9
22 9 32 0 62 30 194 193 52 65 103 128 114 140 47 56 76 108 76 136 0 26 -14
42 -87 107 -96 83 -128 103 -158 96z m120 -113 c69 -58 95 -86 92 -99 -2 -9
-80 -112 -173 -227 l-169 -210 -70 61 c-38 34 -89 77 -111 96 l-42 35 172 212
c96 119 178 212 188 212 9 1 60 -36 113 -80z m-317 -576 c-3 -11 -177 -83
-200 -83 -10 0 -21 7 -25 16 -5 14 19 179 33 222 4 14 196 -141 192 -155z
m-294 -66 c25 -18 17 -49 -17 -65 -17 -8 -27 -20 -25 -30 3 -16 101 -17 1341
-20 l1337 -2 0 -40 0 -40 -1344 0 -1344 0 -31 26 c-56 47 -48 133 17 168 34
19 44 19 66 3z"/>
<path d="M2600 1273 c-29 -6 -44 -47 -48 -130 l-5 -83 -49 0 c-59 0 -108 -19
-156 -61 l-35 -31 -14 26 c-19 36 -43 46 -107 46 -40 0 -56 4 -56 13 0 10 17
14 58 16 81 3 106 23 110 91 3 44 -1 57 -20 77 -22 24 -25 24 -171 21 -145 -3
-149 -4 -167 -28 -15 -20 -20 -42 -20 -103 0 -69 -2 -78 -17 -75 -12 2 -22 19
-29 47 -12 53 -44 81 -91 81 -62 0 -102 -33 -103 -86 0 -17 -10 -44 -22 -60
-12 -16 -23 -31 -25 -33 -2 -2 -27 9 -55 25 -45 25 -64 29 -128 29 -83 0 -123
-15 -177 -65 -18 -17 -36 -30 -41 -30 -4 0 -19 14 -31 31 -35 47 -102 73 -165
64 -28 -3 -81 -6 -118 -5 -51 1 -74 -3 -92 -17 -25 -18 -25 -19 -26 -185 l0
-167 26 -20 c36 -28 102 -28 138 0 25 19 26 25 26 114 0 69 4 96 15 105 26 22
35 0 35 -86 0 -88 15 -136 45 -148 9 -3 36 -6 59 -6 45 0 79 22 91 60 6 20 7
20 38 -6 112 -94 281 -82 368 26 29 36 51 52 47 33 -3 -18 23 -62 51 -86 48
-40 138 -48 177 -16 11 9 21 9 40 0 15 -6 80 -11 163 -11 145 0 149 1 184 53
12 17 16 16 59 -18 41 -32 54 -37 100 -36 264 1 250 -1 272 45 13 28 15 72 12
292 l-4 258 -27 23 c-25 22 -61 27 -115 16z m110 -313 l0 -280 -60 0 c-46 0
-60 3 -60 15 0 12 -6 11 -32 -5 -35 -21 -100 -26 -140 -11 -74 28 -124 138
-98 217 18 54 37 80 75 104 45 28 133 28 169 -1 l26 -20 0 130 0 131 60 0 60
0 0 -280z m-440 205 l0 -55 -95 0 -95 0 0 -55 0 -55 90 0 90 0 0 -55 0 -55
-90 0 -90 0 0 -50 0 -50 95 0 95 0 0 -55 0 -55 -155 0 -155 0 0 270 0 270 155
0 155 0 0 -55z m-431 -87 l-4 -63 35 0 c35 -1 35 -1 38 -49 l3 -48 -38 4 -38
3 0 -55 c0 -75 9 -100 36 -97 18 2 25 -6 36 -41 8 -24 12 -46 9 -49 -13 -13
-107 -15 -137 -3 -44 18 -59 61 -59 165 l0 85 -25 -6 c-24 -6 -25 -4 -25 44 0
47 1 49 25 44 25 -4 25 -3 25 62 l0 66 61 0 61 0 -3 -62z m-889 -81 c0 -17 2
-17 29 2 61 44 175 17 208 -49 8 -16 13 -70 13 -147 l0 -123 -60 0 -60 0 0
107 c0 85 -3 110 -17 125 -24 27 -68 23 -93 -9 -20 -25 -21 -38 -18 -125 l3
-98 -60 0 -60 0 2 167 c1 93 3 168 3 168 0 0 25 0 55 0 46 0 55 -3 55 -18z
m598 4 c90 -46 124 -137 83 -226 -33 -71 -93 -105 -188 -105 -72 0 -135 29
-168 78 -35 52 -35 142 -1 193 51 74 187 104 274 60z m372 -156 c0 -50 -12
-57 -35 -21 -13 19 -14 29 -5 45 20 38 40 26 40 -24z m350 3 c0 -5 0 -12 0
-18 0 -10 -126 -7 -137 4 -4 4 -2 10 5 15 15 9 132 8 132 -1z"/>
<path d="M2460 900 c-12 -12 -20 -33 -20 -55 0 -22 8 -43 20 -55 12 -12 33
-20 55 -20 22 0 43 8 55 20 12 12 20 33 20 55 0 22 -8 43 -20 55 -12 12 -33
20 -55 20 -22 0 -43 -8 -55 -20z m88 -52 c4 -31 -29 -48 -53 -28 -18 15 -19
46 -2 54 28 12 52 1 55 -26z"/>
<path d="M1390 900 c-12 -12 -20 -33 -20 -55 0 -67 77 -100 131 -56 29 23 31
81 4 111 -25 27 -88 27 -115 0z m85 -55 c0 -25 -4 -30 -24 -30 -32 0 -49 28
-31 50 7 9 23 15 34 13 16 -2 21 -10 21 -33z"/>
</g>
</svg>
